<svg width="64" height="64" viewBox="0 0 64 64" fill="none" xmlns="http://www.w3.org/2000/svg">
  <path
    d="M32 64C49.6731 64 64 49.6731 64 32C64 14.3269 49.6731 0 32 0C14.3269 0 0 14.3269 0 32C0 49.6731 14.3269 64 32 64Z"
    fill="url(#paint0_linear_13_7)" />
  <path
    d="M22.4631 45V18.8182H32.7926C34.7699 18.8182 36.4574 19.1719 37.8551 19.8793C39.2614 20.5781 40.331 21.571 41.0639 22.858C41.8054 24.1364 42.1761 25.6406 42.1761 27.3707C42.1761 29.1094 41.8011 30.6051 41.0511 31.858C40.3011 33.1023 39.2145 34.0568 37.7912 34.7216C36.3764 35.3864 34.6634 35.7188 32.652 35.7188H25.7358V31.2699H31.7571C32.8139 31.2699 33.6918 31.125 34.3906 30.8352C35.0895 30.5455 35.6094 30.1108 35.9503 29.5312C36.2997 28.9517 36.4744 28.2315 36.4744 27.3707C36.4744 26.5014 36.2997 25.7685 35.9503 25.1719C35.6094 24.5753 35.0852 24.1236 34.3778 23.8168C33.679 23.5014 32.7969 23.3438 31.7315 23.3438H27.9986V45H22.4631ZM36.6023 33.0852L43.1094 45H36.9986L30.6321 33.0852H36.6023Z"
    fill="white" />
  <defs>
    <linearGradient id="paint0_linear_13_7" x1="0" y1="0" x2="109.5" y2="113" gradientUnits="userSpaceOnUse">
      <stop stop-color="#2F3EFF" />
      <stop offset="1" stop-color="white" />
    </linearGradient>
  </defs>
</svg>